<mxfile host="www.draw.io" modified="2020-02-20T16:57:01.487Z" agent="Mozilla/5.0 (Windows NT 10.0; Win64; x64) AppleWebKit/537.36 (KHTML, like Gecko) Chrome/79.0.3945.130 Safari/537.36" etag="PDNrTI5TfeKybVsTrKza" version="12.7.2" type="github">
  <diagram id="Ne5-z8BJUy4HqZBUeVga" name="Page-1">
    <mxGraphModel dx="1422" dy="762" grid="1" gridSize="10" guides="1" tooltips="1" connect="1" arrows="1" fold="1" page="1" pageScale="1" pageWidth="827" pageHeight="1169" math="0" shadow="0">
      <root>
        <mxCell id="0" />
        <mxCell id="1" parent="0" />
        <mxCell id="AGbpTHA8jZebJIcqYiFr-28" value="Single Select" style="rounded=0;whiteSpace=wrap;html=1;" vertex="1" parent="1">
          <mxGeometry x="210" y="290" width="120" height="60" as="geometry" />
        </mxCell>
        <mxCell id="AGbpTHA8jZebJIcqYiFr-13" value="" style="fillColor=#36B37E;strokeColor=none;rounded=1;arcSize=50" vertex="1" parent="1">
          <mxGeometry x="390" y="392" width="30" height="16" as="geometry" />
        </mxCell>
        <mxCell id="AGbpTHA8jZebJIcqYiFr-14" value="" style="shape=ellipse;strokeColor=none;fillColor=#ffffff" vertex="1" parent="AGbpTHA8jZebJIcqYiFr-13">
          <mxGeometry x="1" y="0.5" width="12" height="12" relative="1" as="geometry">
            <mxPoint x="-14" y="-6" as="offset" />
          </mxGeometry>
        </mxCell>
        <mxCell id="AGbpTHA8jZebJIcqYiFr-15" value="" style="html=1;shadow=0;dashed=0;shape=mxgraph.atlassian.check;strokeColor=#ffffff" vertex="1" parent="AGbpTHA8jZebJIcqYiFr-13">
          <mxGeometry y="0.5" width="6" height="5" relative="1" as="geometry">
            <mxPoint x="4" y="-3" as="offset" />
          </mxGeometry>
        </mxCell>
        <mxCell id="AGbpTHA8jZebJIcqYiFr-16" value="multiple" style="text;html=1;strokeColor=none;fillColor=none;align=center;verticalAlign=middle;whiteSpace=wrap;rounded=0;" vertex="1" parent="1">
          <mxGeometry x="430" y="388" width="40" height="20" as="geometry" />
        </mxCell>
        <mxCell id="AGbpTHA8jZebJIcqYiFr-17" value="single" style="text;html=1;strokeColor=none;fillColor=none;align=center;verticalAlign=middle;whiteSpace=wrap;rounded=0;" vertex="1" parent="1">
          <mxGeometry x="350" y="388" width="40" height="20" as="geometry" />
        </mxCell>
        <mxCell id="AGbpTHA8jZebJIcqYiFr-25" value="Multi Select" style="rounded=0;whiteSpace=wrap;html=1;" vertex="1" parent="1">
          <mxGeometry x="470" y="290" width="120" height="60" as="geometry" />
        </mxCell>
        <mxCell id="AGbpTHA8jZebJIcqYiFr-26" value="" style="endArrow=classic;html=1;" edge="1" parent="1">
          <mxGeometry width="50" height="50" relative="1" as="geometry">
            <mxPoint x="460" y="392" as="sourcePoint" />
            <mxPoint x="510" y="342" as="targetPoint" />
          </mxGeometry>
        </mxCell>
        <mxCell id="AGbpTHA8jZebJIcqYiFr-27" value="" style="endArrow=classic;html=1;" edge="1" parent="1">
          <mxGeometry width="50" height="50" relative="1" as="geometry">
            <mxPoint x="375" y="388" as="sourcePoint" />
            <mxPoint x="300" y="338" as="targetPoint" />
          </mxGeometry>
        </mxCell>
        <mxCell id="AGbpTHA8jZebJIcqYiFr-29" value="" style="endArrow=classic;html=1;" edge="1" parent="1">
          <mxGeometry width="50" height="50" relative="1" as="geometry">
            <mxPoint x="315" y="290" as="sourcePoint" />
            <mxPoint x="380" y="230" as="targetPoint" />
          </mxGeometry>
        </mxCell>
        <mxCell id="AGbpTHA8jZebJIcqYiFr-30" value="" style="endArrow=classic;html=1;" edge="1" parent="1">
          <mxGeometry width="50" height="50" relative="1" as="geometry">
            <mxPoint x="520" y="290" as="sourcePoint" />
            <mxPoint x="430" y="230" as="targetPoint" />
          </mxGeometry>
        </mxCell>
        <mxCell id="AGbpTHA8jZebJIcqYiFr-31" value="&lt;b&gt;Select Option Object&lt;br&gt;&lt;/b&gt;&lt;br&gt;{&lt;br&gt;&amp;nbsp;supporterName: &#39;&#39;,&lt;br&gt;imageLinks: [&lt;br&gt;&#39;url&#39;,&lt;br&gt;&#39;url&#39;&lt;br&gt;]&lt;br&gt;}" style="rounded=0;whiteSpace=wrap;html=1;align=left;spacingLeft=9;" vertex="1" parent="1">
          <mxGeometry x="354" y="80" width="146" height="140" as="geometry" />
        </mxCell>
        <mxCell id="AGbpTHA8jZebJIcqYiFr-32" value="" style="endArrow=classic;html=1;" edge="1" parent="1">
          <mxGeometry width="50" height="50" relative="1" as="geometry">
            <mxPoint x="505" y="140" as="sourcePoint" />
            <mxPoint x="555" y="90" as="targetPoint" />
          </mxGeometry>
        </mxCell>
        <mxCell id="AGbpTHA8jZebJIcqYiFr-33" value="" style="endArrow=classic;html=1;" edge="1" parent="1">
          <mxGeometry width="50" height="50" relative="1" as="geometry">
            <mxPoint x="510" y="180" as="sourcePoint" />
            <mxPoint x="570" y="210" as="targetPoint" />
          </mxGeometry>
        </mxCell>
        <mxCell id="AGbpTHA8jZebJIcqYiFr-36" value="If links don&#39;t Exist" style="text;html=1;strokeColor=none;fillColor=none;align=center;verticalAlign=middle;whiteSpace=wrap;rounded=0;fontStyle=1" vertex="1" parent="1">
          <mxGeometry x="500" y="180" width="110" height="20" as="geometry" />
        </mxCell>
        <mxCell id="AGbpTHA8jZebJIcqYiFr-34" value="If links Exist" style="text;html=1;strokeColor=none;fillColor=none;align=center;verticalAlign=middle;whiteSpace=wrap;rounded=0;fontStyle=1" vertex="1" parent="1">
          <mxGeometry x="490" y="110" width="110" height="20" as="geometry" />
        </mxCell>
        <mxCell id="AGbpTHA8jZebJIcqYiFr-37" value="Select with supporterName.imageLinks" style="rounded=0;whiteSpace=wrap;html=1;align=left;" vertex="1" parent="1">
          <mxGeometry x="560" y="30" width="190" height="60" as="geometry" />
        </mxCell>
        <mxCell id="AGbpTHA8jZebJIcqYiFr-38" value="URL Text Input" style="rounded=0;whiteSpace=wrap;html=1;align=left;" vertex="1" parent="1">
          <mxGeometry x="570" y="210" width="190" height="60" as="geometry" />
        </mxCell>
      </root>
    </mxGraphModel>
  </diagram>
</mxfile>
